<?xml version="1.0" encoding="UTF-8" standalone="no"?>
<!-- Created with Inkscape (http://www.inkscape.org/) -->

<svg
   version="1.1"
   id="svg1"
   width="256"
   height="256"
   viewBox="0 0 256 256"
   sodipodi:docname="mp-favicons.svg"
   xml:space="preserve"
   inkscape:version="1.4 (86a8ad7, 2024-10-11)"
   xmlns:inkscape="http://www.inkscape.org/namespaces/inkscape"
   xmlns:sodipodi="http://sodipodi.sourceforge.net/DTD/sodipodi-0.dtd"
   xmlns="http://www.w3.org/2000/svg"
   xmlns:svg="http://www.w3.org/2000/svg"><defs
     id="defs1"><clipPath
       clipPathUnits="userSpaceOnUse"
       id="clipPath44"><rect
         style="fill:#000000;stroke:none;stroke-width:0;stroke-linecap:round;stroke-linejoin:round;stroke-dasharray:none;paint-order:fill markers stroke"
         id="rect44"
         width="188.46626"
         height="179.67117"
         x="451.6908"
         y="144.4908" /></clipPath></defs><sodipodi:namedview
     id="namedview1"
     pagecolor="#ffffff"
     bordercolor="#999999"
     borderopacity="1"
     inkscape:showpageshadow="0"
     inkscape:pageopacity="0"
     inkscape:pagecheckerboard="0"
     inkscape:deskcolor="#d1d1d1"
     showgrid="false"
     inkscape:zoom="0.79589844"
     inkscape:cx="268.25031"
     inkscape:cy="-109.93865"
     inkscape:window-width="1920"
     inkscape:window-height="1017"
     inkscape:window-x="-8"
     inkscape:window-y="-8"
     inkscape:window-maximized="1"
     inkscape:current-layer="svg1"
     showguides="true"
     inkscape:export-bgcolor="#ffffff00"><inkscape:page
       x="0"
       y="0"
       width="256"
       height="256"
       id="page44"
       margin="0"
       bleed="0"
       inkscape:export-filename="LogoV1.png"
       inkscape:export-xdpi="96"
       inkscape:export-ydpi="96"
       inkscape:label="LogoV1" /><inkscape:page
       x="263.70032"
       y="0.29178727"
       width="256"
       height="256"
       id="page43"
       margin="0"
       bleed="0"
       inkscape:export-filename="Página 1.svg"
       inkscape:export-xdpi="96"
       inkscape:export-ydpi="96"
       inkscape:label="LogoV2" /><inkscape:page
       x="529.54791"
       y="0.29178727"
       width="256"
       height="256"
       id="page42"
       margin="0"
       bleed="0"
       inkscape:export-filename="alta-app\public\mp-favicon.svg"
       inkscape:export-xdpi="96"
       inkscape:export-ydpi="96"
       inkscape:label="LogoV3" /></sodipodi:namedview><g
     inkscape:groupmode="layer"
     id="layer1"
     inkscape:label="LogoV1"
     style="display:inline;fill:#000000"
     inkscape:highlight-color="#c9ae5a"
     transform="translate(529.0359,-0.41329198)"><circle
       style="display:inline;fill:#ffffff;stroke:none;stroke-width:0;stroke-linecap:round;stroke-linejoin:round;stroke-dasharray:none;paint-order:fill markers stroke"
       id="path45"
       cx="-401.03589"
       cy="128.41328"
       inkscape:label="Circulo Fondo Blanco Para Letras Blancas"
       r="120" /><path
       style="display:inline;fill:#000000"
       d="m -428.45501,251.8343 c -44.07038,-9.62883 -79.38032,-41.17972 -93.91335,-83.91546 -13.1267,-38.60031 -6.62255,-81.921021 17.318,-115.345985 6.7855,-9.473691 21.29643,-23.737149 30.59816,-30.076347 10.39128,-7.081733 30.16091,-15.8267683 42.98436,-19.0139981 16.40702,-4.07791799 44.47974,-4.0947146 59.48716,-0.035593 38.98764,10.5451471 68.74022,35.0302011 85.17052,70.0915591 9.22042,19.675866 11.1082,28.901914 11.08385,54.169734 -0.0194,20.14039 -0.3301,23.01433 -3.67571,34 -6.94714,22.81166 -16.74508,39.38041 -32.75528,55.39061 -16.09574,16.09573 -32.87278,25.98623 -55.39062,32.65419 -16.50783,4.88828 -43.79241,5.82064 -60.90709,2.08129 z m 28.32808,-42.83967 c 2.50085,-1.33841 2.57901,-3.5595 2.57901,-73.28642 0,-69.726918 -0.0782,-71.948005 -2.57901,-73.286419 -3.62597,-1.940559 -19.13957,-1.735192 -21.63653,0.286422 -1.13221,0.916667 -5.80838,8.866667 -10.39149,17.666667 -4.58311,8.8 -8.77518,16.473747 -9.31572,17.052772 -0.54053,0.579025 -2.96777,-2.720975 -5.39385,-7.333333 -7.39996,-14.068483 -15.04314,-26.999306 -16.56943,-28.032356 -2.41875,-1.637099 -20.09967,-1.168045 -21.8473,0.579583 -1.17721,1.177208 -1.6,12.778836 -1.6,43.904764 0,47.50789 -0.20726,46.49523 9.51623,46.49523 10.6855,0 10.47716,0.57439 10.53586,-29.04691 l 0.0521,-26.286417 4.28124,7.771217 c 2.35469,4.27418 6.08735,10.87418 8.29481,14.66667 l 4.01357,6.89544 h 8.62734 8.62734 l 7.35909,-14 7.35909,-13.999994 0.33845,53.999994 c 0.30632,48.87561 0.55193,54.15816 2.58817,55.66667 2.72666,2.01999 11.60831,2.18778 15.16104,0.28642 z m 28.97901,-16.21975 c 1.13632,-1.13632 1.6,-9.22359 1.6,-27.90615 v -26.30614 l 20.33334,-0.42719 c 18.51738,-0.38904 20.70566,-0.69277 24.50229,-3.40093 7.82923,-5.58465 8.71089,-9.53866 8.2464,-36.983163 l -0.41535,-24.541534 -4,-4.248328 c -6.84336,-7.268207 -9.97389,-7.919899 -38.04483,-7.919899 -15.00307,0 -26.52331,0.567017 -28.04284,1.380245 -2.49453,1.335034 -2.57901,3.466376 -2.57901,65.066669 0,47.7561 0.40022,64.08664 1.6,65.28642 0.88,0.88 4.66,1.6 8.4,1.6 3.74,0 7.52,-0.72 8.4,-1.6 z m 1.6,-93.066667 V 80.812072 l 15.38435,0.44807 c 11.86721,0.345634 15.67283,0.905305 16.64625,2.448071 0.69405,1.1 1.26191,8.3 1.26191,16 0,7.699997 -0.56786,14.899997 -1.26191,15.999997 -0.97342,1.54277 -4.77904,2.10244 -16.64625,2.44807 l -15.38435,0.44807 z"
       id="path1"
       inkscape:label="Todo Rasterizado Desde Mapa De Bits" /></g><g
     inkscape:groupmode="layer"
     inkscape:label="LogoV2"
     id="g2"
     style="display:inline"
     transform="translate(339.23926)"
     inkscape:highlight-color="#5a64c9"><circle
       style="display:inline;fill:#000000;stroke:none;stroke-width:0;stroke-linecap:round;stroke-linejoin:round;stroke-dasharray:none;paint-order:fill markers stroke"
       id="path2-2"
       cx="51.96106"
       cy="127.79179"
       r="127.5"
       inkscape:label="Circulo Negro" /><path
       d="m 98.593877,61.491006 c -10.01334,0.108434 -20.10437,-0.121836 -30.06445,1.037109 -2.61768,0.02526 -3.47628,2.775496 -3.48828,4.943359 -0.89006,15.609483 -0.48427,31.26226 -0.5918,46.890616 0.1429,24.33869 -0.10924,48.68806 0.56641,73.01953 0.38689,2.07437 -0.36547,5.00191 1.55664,6.42969 4.5292,1.81563 9.68589,1.37724 14.39258,0.54102 2.68269,-0.26943 2.90657,-3.25747 3.02148,-5.35352 0.86014,-16.55382 0.37759,-33.14359 0.51367,-49.71289 10.96615,-0.0949 21.930393,-0.45692 32.888663,-0.87109 5.0412,-0.14404 10.56705,-0.81845 14.21485,-4.70703 4.18723,-3.26161 5.43986,-8.72995 5.73828,-13.76563 0.92774,-15.47069 0.0263,-30.979541 -0.0723,-46.462883 -4.04143,-3.684547 -7.55601,-8.471821 -12.96289,-10.212891 -8.37947,-2.131054 -17.1429,-1.5304 -25.712883,-1.77539 z m -14.09375,19.978515 c 8.63384,0.352359 17.281333,0.505213 25.898433,1.177735 2.10054,0.394971 5.54118,0.0086 6.19922,2.660156 1.12261,8.577348 0.94827,17.294778 0.57422,25.923818 -0.11672,2.38375 -0.33164,5.91016 -3.37305,6.25782 -9.69119,1.35771 -19.533783,1.1551 -29.298823,1.53711 2e-4,-6.2593 -2e-4,-12.52 0,-18.7793 z"
       style="display:inline;fill:#ffffff;stroke-width:0;stroke-linecap:round;stroke-linejoin:round;paint-order:fill markers stroke"
       id="path42-6"
       inkscape:label="Letra P" /><path
       d="m -17.550653,61.502724 c -2.74453,-0.03307 -5.48638,0.122831 -8.21875,0.371094 -2.0787,0.418669 -5.68622,-0.10523 -6.15625,2.675781 -1.07553,8.793139 -0.66248,17.699721 -0.88672,26.542969 0.0163,17.481352 -0.52542,34.984332 0.35938,52.451162 0.45596,3.35137 0.17362,8.00587 3.74414,9.74219 3.56556,0.84546 7.35403,0.29265 10.99023,0.14453 3.19145,-0.0131 4.11046,-3.5819 4.32227,-6.13672 1.35809,-14.90543 0.51639,-29.90446 0.95507,-44.84765 0.20988,1.0369 -0.26663,-3.118786 0.58399,-1.69922 5.3385604,8.85017 10.2186304,17.98081 15.4218704,26.91601 H 21.308717 c 4.17558,-7.94038 8.28265,-15.91533 12.55079,-23.80664 0.41452,-0.41423 0.80788,-2.35849 1.58203,-1.69922 0.5923,23.5233 0.41501,47.06678 0.70898,70.59766 0.26618,11.24696 -0.0707,22.55138 1.17774,33.74609 0.0268,2.75577 2.7262,4.18398 5.19531,4.17188 3.5523,0.0572 7.36166,0.6588 10.72266,-0.7168 2.33731,-0.79259 2.58698,-3.40613 2.64648,-5.50976 0.69292,-18.9345 0.39201,-37.8916 0.54688,-56.83594 -0.0368,-25.53107 0.34272,-51.07168 -0.3711,-76.595697 -0.39708,-2.690663 0.38339,-6.358862 -2.17773,-8.130859 -4.13571,-1.553273 -8.7247,-1.335728 -13.08203,-1.273438 -3.02837,0.39408 -6.65452,-0.0557 -9.12891,2.027344 -6.84949,10.135515 -11.80475,21.404291 -18,31.935547 -0.55812,0.451392 -0.95995,2.610347 -1.83985,1.933594 C 7.1769974,91.391068 4.1944674,84.1997 0.22864738,77.63749 -2.8142826,72.65355 -5.2817326,67.201225 -9.1561226,62.791787 -11.615203,61.297651 -14.772483,61.732154 -17.550653,61.502724 Z"
       style="display:inline;fill:#ffffff;stroke-width:0;stroke-linecap:round;stroke-linejoin:round;paint-order:fill markers stroke"
       id="path41-1"
       inkscape:label="Letra M" /></g><g
     inkscape:groupmode="layer"
     inkscape:label="LogoV3"
     id="g1"
     style="display:inline"><circle
       style="display:inline;fill:#000000;stroke:none;stroke-width:0;stroke-linecap:round;stroke-linejoin:round;stroke-dasharray:none;paint-order:fill markers stroke"
       id="path2"
       cx="657.04791"
       cy="127.79179"
       r="127.5"
       inkscape:label="Circulo Negro" /><path
       id="path44"
       style="display:inline;fill:#ffffff"
       inkscape:label="Letras MP"
       d="m 636.63972,56.97147 -26.59571,50.21875 -28.67226,-50.224166 -21.23399,0.09135 -0.0996,100.908206 h 15.99024 l 0.0723,-78.921878 26.75781,49.720708 14.41992,-0.11719 25.65039,-49.285159 0.0762,147.144529 h 16.17383 V 56.948029 Z m 37.99804,0.08203 -0.0977,151.28906 h 15.98437 l 0.0937,-67.61523 40.32012,-0.0724 c 21.93097,0.5917 23.47539,-16.71978 23.52712,-20.93144 l 0.0197,-40.143135 c 0.34684,-9.304145 -4.90162,-19.889106 -14.84153,-21.909628 z m 55.93946,15.982421 c 3.2295,1.029427 7.8556,4.049196 7.90039,10.460937 l 0.0215,32.707032 c -1.23366,4.20253 -4.07625,8.32283 -10.46665,8.45736 l -37.50405,0.0895 V 72.938254 Z"
       sodipodi:nodetypes="cccccccccccccccccccccccccccccc" /></g></svg>
