<svg width="256" height="256" version="1.1" viewBox="0 0 256 256" xml:space="preserve" xmlns="http://www.w3.org/2000/svg"><g transform="translate(-529.55 -.29179)"><circle cx="657.05" cy="127.79" r="127.5" style="paint-order:fill markers stroke"/><path d="m636.64 56.971-26.596 50.219-28.672-50.224-21.234 0.09135-0.0996 100.91h15.99l0.0723-78.922 26.758 49.721 14.42-0.11719 25.65-49.285 0.0762 147.14h16.174v-169.56zm37.998 0.08203-0.0977 151.29h15.984l0.0937-67.615 40.32-0.0724c21.931 0.5917 23.475-16.72 23.527-20.931l0.0197-40.143c0.34684-9.3041-4.9016-19.889-14.842-21.91zm55.939 15.982c3.2295 1.0294 7.8556 4.0492 7.9004 10.461l0.0215 32.707c-1.2337 4.2025-4.0762 8.3228-10.467 8.4574l-37.504 0.0895v-51.812z" fill="#fff"/></g></svg>
